<svg version="1.1" xmlns="http://www.w3.org/2000/svg" viewBox="0 0 2048 2048" width="1024" height="1024" style="width: 512px; height: 512px">
  <path transform="translate(0,0)" fill="#FEFEFE" d="M 836.554 744.375 C 844.15 748.159 883.56 779.624 892.381 786.43 C 933.712 817.719 974.828 849.292 1015.73 881.146 L 1227.74 1043.06 C 1254.59 1063.84 1291.11 1088.74 1315.35 1111.84 C 1335.73 1131.49 1351.54 1155.38 1361.66 1181.82 C 1384.07 1238.71 1379.63 1311.08 1354.61 1366.53 C 1324.43 1434.97 1263.37 1482.37 1194.38 1508.34 C 1026.99 1571.34 762.518 1534.4 691.144 1346.77 C 675.782 1315.03 674.152 1264.77 670.98 1229.87 C 689.572 1230.1 728.766 1230.95 745.629 1229.16 C 745.857 1271.39 749.053 1296.67 767.045 1336.16 C 790.725 1388.78 846.489 1427.14 901.295 1444.4 C 1028.7 1484.52 1241.96 1468.79 1294.33 1322.12 C 1308.76 1281.71 1305.6 1222.95 1283.28 1186.11 C 1269.14 1162.77 1240.26 1143.83 1218.56 1127.37 L 1166.15 1087.11 L 964.441 932.57 L 897.193 880.903 C 882.257 869.514 866.643 858.129 852.487 845.841 C 823.562 820.734 825.364 777.466 836.554 744.375 z" />
  <path transform="translate(0,0)" fill="#FEFEFE" d="M 1224.58 1307.21 C 1221.76 1306.85 1154.63 1254.26 1146.04 1247.68 L 925.007 1078.22 L 819.379 997.441 C 779.505 966.893 733.681 938.032 710.095 892.233 C 694.904 862.736 688.442 836.897 686.392 803.812 C 682.221 734.731 706.016 666.878 752.418 615.532 C 869.672 483.429 1140.41 477.609 1268.94 596.519 C 1337.23 659.702 1360.91 729.461 1366.08 819.76 C 1344.99 818.578 1313.05 819.981 1291.07 820.245 C 1289.97 784.699 1284.29 746.625 1268.16 714.719 C 1238.01 655.091 1187.92 618.934 1125.58 598.742 C 1100.72 590.246 1077.59 588.052 1051.65 585.978 C 942.609 577.26 806.945 614.472 768.709 729.416 C 753.882 773.988 755.345 825.699 779.839 866.615 C 792.955 888.524 821.959 907.753 842.475 923.584 C 870.464 945.372 898.622 966.94 926.947 988.289 L 1142.85 1154.8 C 1167.39 1173.48 1195.35 1192.94 1217.61 1214.4 C 1219.43 1216.15 1221.71 1221.07 1223 1223.51 C 1233.79 1243.93 1235.15 1274.15 1227.88 1295.83 C 1226.87 1299.27 1225.38 1303.81 1224.58 1307.21 z" />
</svg>